<svg width="34" height="44" viewBox="0 0 34 44" fill="none" xmlns="http://www.w3.org/2000/svg">
<path d="M17 42C17 42 32 30 32 17C32 8.716 25.284 2 17 2C8.716 2 2 8.716 2 17C2 30 17 42 17 42Z" stroke="#4162EF" stroke-width="4" stroke-linejoin="round"/>
<path d="M17 23C17.7879 23 18.5681 22.8448 19.2961 22.5433C20.0241 22.2417 20.6855 21.7998 21.2426 21.2426C21.7998 20.6855 22.2417 20.0241 22.5433 19.2961C22.8448 18.5681 23 17.7879 23 17C23 16.2121 22.8448 15.4319 22.5433 14.7039C22.2417 13.9759 21.7998 13.3145 21.2426 12.7574C20.6855 12.2002 20.0241 11.7583 19.2961 11.4567C18.5681 11.1552 17.7879 11 17 11C15.4087 11 13.8826 11.6321 12.7574 12.7574C11.6321 13.8826 11 15.4087 11 17C11 18.5913 11.6321 20.1174 12.7574 21.2426C13.8826 22.3679 15.4087 23 17 23Z" stroke="#4162EF" stroke-width="4" stroke-linejoin="round"/>
</svg>
