<svg width="547" height="487" viewBox="0 0 547 487" fill="none" xmlns="http://www.w3.org/2000/svg">
<path d="M450.689 451.204C450.689 534.322 358.028 443.704 257.689 443.704C157.351 443.704 63.6895 533.704 63.6895 451.204C63.6895 362.204 157.189 213.704 257.689 213.704C376.189 213.704 450.689 368.085 450.689 451.204Z" fill="#123BEB"/>
<ellipse cx="85.7489" cy="215.643" rx="55.6349" ry="66.4993" transform="rotate(-38.9097 85.7489 215.643)" fill="#123BEB"/>
<ellipse cx="210.136" cy="108.397" rx="82.1848" ry="98.5411" transform="rotate(-6.89428 210.136 108.397)" fill="#123BEB"/>
<ellipse cx="379.994" cy="139.615" rx="72.2228" ry="90.8832" transform="rotate(21.3015 379.994 139.615)" fill="#123BEB"/>
<ellipse cx="466" cy="257.22" rx="52.879" ry="63.5159" transform="rotate(36.5668 466 257.22)" fill="#123BEB"/>
<path d="M313.689 373.649V380.649H314.039L314.386 380.614L313.689 373.649ZM347.688 323.553L353.925 320.374L351.977 316.553H347.688V323.553ZM256.688 280.053L260.313 274.064L260.017 273.885L259.704 273.736L256.688 280.053ZM180.69 354.203L177.06 360.189H177.06L180.69 354.203ZM262.297 320.891C264.61 317.793 263.973 313.407 260.875 311.094C257.777 308.782 253.391 309.418 251.078 312.516L262.297 320.891ZM198.69 465.203C198.69 437.843 202.058 417.71 216.633 403.879C231.435 389.832 259.518 380.649 313.689 380.649V366.649C258.861 366.649 225.944 375.743 206.996 393.723C187.821 411.92 184.69 437.564 184.69 465.203H198.69ZM314.386 380.614C325.505 379.502 334.205 375.995 340.796 370.845C347.375 365.704 351.483 359.216 353.882 352.71C356.264 346.249 356.988 339.713 356.826 334.198C356.669 328.873 355.66 323.778 353.925 320.374L341.452 326.732C341.884 327.579 342.708 330.371 342.832 334.61C342.951 338.66 342.405 343.367 340.746 347.867C339.104 352.322 336.399 356.514 332.176 359.813C327.965 363.103 321.874 365.795 312.993 366.683L314.386 380.614ZM347.688 316.553C321.766 316.553 306.289 309.7 294.472 301.407C288.384 297.135 283.204 292.44 277.759 287.613C272.43 282.888 266.798 277.99 260.313 274.064L253.063 286.041C258.328 289.228 263.096 293.323 268.471 298.088C273.729 302.75 279.554 308.042 286.43 312.867C300.538 322.768 318.811 330.553 347.688 330.553V316.553ZM177.06 360.189C188.908 367.373 200.09 369.477 210.386 367.787C220.53 366.122 229.044 360.901 235.948 354.8C242.849 348.703 248.46 341.448 252.815 335.168C255.002 332.015 256.917 329.041 258.514 326.56C260.172 323.986 261.372 322.13 262.297 320.891L251.078 312.516C249.795 314.235 248.292 316.576 246.744 318.979C245.137 321.475 243.343 324.26 241.311 327.19C237.229 333.076 232.361 339.288 226.679 344.308C221.001 349.325 214.827 352.87 208.118 353.972C201.559 355.048 193.721 353.918 184.319 348.218L177.06 360.189ZM259.704 273.736C244.879 266.658 230.422 267.726 217.807 273.389C205.414 278.952 194.887 288.872 186.943 299.583C178.992 310.303 173.232 322.345 170.714 332.776C169.462 337.963 168.912 343.157 169.576 347.768C170.24 352.378 172.294 357.299 177.06 360.189L184.319 348.218C184.311 348.213 184.203 348.16 184.034 347.853C183.842 347.505 183.589 346.854 183.433 345.771C183.112 343.543 183.309 340.259 184.323 336.061C186.336 327.723 191.18 317.37 198.187 307.923C205.2 298.468 213.985 290.45 223.54 286.161C232.872 281.972 242.997 281.273 253.672 286.37L259.704 273.736Z" fill="white"/>
</svg>
