<svg width="234" height="60" viewBox="0 0 234 60" fill="none" xmlns="http://www.w3.org/2000/svg">
<path d="M53.6087 55.2362C53.6087 65.3352 42.57 54.325 30.6166 54.325C18.6633 54.325 7.50537 65.26 7.50537 55.2362C7.50537 44.4227 18.644 26.3799 30.6166 26.3799C44.7335 26.3799 53.6087 45.1372 53.6087 55.2362Z" fill="#123BEB"/>
<ellipse cx="6.68013" cy="8.01787" rx="6.68013" ry="8.01787" transform="matrix(0.772041 -0.635573 0.62059 0.784135 0 24.5742)" fill="#123BEB"/>
<ellipse cx="9.79353" cy="11.9694" rx="9.79353" ry="11.9694" transform="matrix(0.992482 -0.122391 0.117729 0.993046 13.8228 2.89746)" fill="#123BEB"/>
<ellipse cx="8.62669" cy="11.0142" rx="8.62669" ry="11.0142" transform="matrix(0.929221 0.369525 -0.357101 0.934066 41.1038 3.90234)" fill="#123BEB"/>
<ellipse cx="6.34425" cy="7.66412" rx="6.34425" ry="7.66412" transform="matrix(0.797495 0.603325 -0.588185 0.808727 54.8811 21.6416)" fill="#123BEB"/>
<path d="M37.4143 45.9093V46.9093H37.4649L37.5153 46.9042L37.4143 45.9093ZM41.464 39.8506L42.3577 39.4018L42.0809 38.8506H41.464V39.8506ZM30.6247 34.5894L31.1483 33.7375L31.1059 33.7114L31.061 33.6896L30.6247 34.5894ZM21.5724 43.5575L22.0967 42.7059H22.0967L21.5724 43.5575ZM31.4304 39.6145C31.7576 39.1695 31.662 38.5436 31.2171 38.2164C30.7721 37.8893 30.1462 37.9848 29.819 38.4298L31.4304 39.6145ZM23.8826 56.9823C23.8826 53.6739 24.2874 51.2963 25.9736 49.6715C27.6874 48.0202 30.9722 46.9093 37.4143 46.9093V44.9093C30.8732 44.9093 26.8922 46.009 24.5859 48.2312C22.2521 50.4799 21.8826 53.6388 21.8826 56.9823H23.8826ZM37.5153 46.9042C38.8691 46.7667 39.9378 46.3318 40.7512 45.6865C41.5622 45.0431 42.0661 44.2328 42.3593 43.4253C42.6503 42.6239 42.7383 41.8152 42.7185 41.1339C42.6996 40.4794 42.5776 39.84 42.3577 39.4018L40.5703 40.2993C40.6084 40.3751 40.7048 40.6896 40.7194 41.1919C40.7332 41.6674 40.6698 42.2184 40.4794 42.7427C40.2912 43.2609 39.9838 43.7424 39.5081 44.1197C39.0348 44.4952 38.3417 44.81 37.3133 44.9144L37.5153 46.9042ZM41.464 38.8506C38.4151 38.8506 36.6067 38.0342 35.2266 37.0507C34.5108 36.5406 33.9012 35.9799 33.2504 35.394C32.6164 34.8232 31.9354 34.2212 31.1483 33.7375L30.1011 35.4414C30.7136 35.8178 31.2714 36.3035 31.9123 36.8804C32.5364 37.4423 33.2377 38.0893 34.0659 38.6795C35.7738 39.8965 37.9855 40.8506 41.464 40.8506V38.8506ZM21.0482 44.4091C22.489 45.2961 23.8638 45.5638 25.1389 45.3513C26.3913 45.1426 27.434 44.4897 28.2701 43.7396C29.106 42.9898 29.7825 42.1005 30.3041 41.3368C30.5662 40.953 30.7955 40.5913 30.9858 40.2914C31.1844 39.9782 31.3241 39.7591 31.4304 39.6145L29.819 38.4298C29.6623 38.643 29.48 38.9313 29.2969 39.2201C29.1052 39.5222 28.8929 39.8569 28.6525 40.2089C28.1691 40.9166 27.5975 41.6562 26.9346 42.2509C26.2719 42.8453 25.5653 43.2527 24.8101 43.3785C24.0777 43.5006 23.1869 43.3772 22.0967 42.7059L21.0482 44.4091ZM31.061 33.6896C29.2426 32.8081 27.4645 32.942 25.9202 33.6459C24.4094 34.3346 23.1354 35.5572 22.1794 36.866C21.222 38.1766 20.5268 39.6508 20.2218 40.9333C20.0703 41.5706 20.0014 42.2177 20.0838 42.7989C20.166 43.3777 20.4236 44.0245 21.0482 44.4091L22.0967 42.7059C22.1654 42.7483 22.0992 42.7661 22.064 42.5179C22.0291 42.272 22.0492 41.8937 22.1676 41.396C22.4023 40.4086 22.9701 39.1742 23.7944 38.0457C24.6201 36.9154 25.6464 35.9687 26.7497 35.4658C27.8196 34.9781 28.9696 34.8984 30.1885 35.4893L31.061 33.6896Z" fill="white"/>
<path d="M85.6494 30.9209H90.0986L90.082 30.8877C89.1966 28.1097 88.4661 25.4535 87.8906 22.9189H87.791C87.3704 24.9333 86.6566 27.6006 85.6494 30.9209ZM91.9082 20.9102L97.7021 36.9639C98.0231 37.8271 97.918 38.6406 97.3867 39.4043C96.8444 40.168 96.1139 40.5498 95.1953 40.5498H95.1289C94.5534 40.5498 94.0277 40.3783 93.5518 40.0352C93.0869 39.6921 92.766 39.2438 92.5889 38.6904L91.5098 35.3701H84.2715L83.2588 38.6572C83.0928 39.2217 82.7718 39.6755 82.2959 40.0186C81.82 40.3727 81.2887 40.5498 80.7021 40.5498H80.4199C79.5013 40.5498 78.7764 40.1735 78.2451 39.4209C77.7139 38.6794 77.5977 37.8714 77.8965 36.9971L83.4082 20.9766C83.7181 20.0801 84.2604 19.3551 85.0352 18.8018C85.8099 18.2373 86.6787 17.9551 87.6416 17.9551H87.6914C88.6432 17.9551 89.501 18.2262 90.2646 18.7686C91.0394 19.3109 91.5872 20.0247 91.9082 20.9102ZM104.791 31.9004V32.0996C104.791 33.3503 105.123 34.4183 105.787 35.3037C106.462 36.1781 107.276 36.6152 108.228 36.6152C108.792 36.7038 109.356 36.654 109.921 36.4658C111.05 36.0895 111.631 35.2096 111.664 33.8262V29.6758C111.41 28.9896 110.801 28.4583 109.838 28.082C108.731 27.6504 107.624 27.7057 106.518 28.248C105.986 28.5026 105.56 28.9785 105.239 29.6758C104.94 30.3398 104.791 31.0814 104.791 31.9004ZM107.796 23.832C109.168 23.832 110.458 24.1862 111.664 24.8945V19.416C111.664 18.7077 111.919 18.099 112.428 17.5898C112.937 17.0807 113.546 16.8262 114.254 16.8262H114.32C115.029 16.8262 115.637 17.0807 116.146 17.5898C116.656 18.099 116.91 18.7077 116.91 19.416V39.5537C116.91 39.8525 116.805 40.1071 116.595 40.3174C116.384 40.5166 116.135 40.6162 115.848 40.6162H112.727C112.428 40.6162 112.179 40.5166 111.979 40.3174C111.769 40.1071 111.664 39.8581 111.664 39.5703V39.5537C110.458 40.262 109.168 40.6162 107.796 40.6162C105.593 40.6162 103.712 39.7972 102.151 38.1592C100.591 36.5212 99.8105 34.5456 99.8105 32.2324C99.8105 29.9082 100.591 27.9271 102.151 26.2891C103.712 24.651 105.593 23.832 107.796 23.832ZM124.979 35.4199C125.786 36.3275 126.755 36.7812 127.884 36.7812C129.013 36.7812 129.981 36.3275 130.789 35.4199C131.586 34.5234 131.984 33.4443 131.984 32.1826C131.984 30.9209 131.586 29.8418 130.789 28.9453C129.981 28.0488 129.013 27.6006 127.884 27.6006C126.755 27.6006 125.786 28.0488 124.979 28.9453C124.171 29.8418 123.767 30.9209 123.767 32.1826C123.767 33.4443 124.171 34.5234 124.979 35.4199ZM127.884 23.5C128.039 23.4889 128.199 23.4834 128.365 23.4834C130.778 23.4834 132.831 24.3356 134.524 26.04C136.229 27.7445 137.081 29.792 137.081 32.1826C137.081 34.5954 136.229 36.6484 134.524 38.3418C132.831 40.0462 130.778 40.8984 128.365 40.8984C128.199 40.8984 128.039 40.8929 127.884 40.8818C127.707 40.8929 127.535 40.8984 127.369 40.8984C124.967 40.8984 122.914 40.0462 121.21 38.3418C119.517 36.6484 118.67 34.5954 118.67 32.1826C118.67 29.792 119.517 27.7445 121.21 26.04C122.914 24.3356 124.967 23.4834 127.369 23.4834C127.535 23.4834 127.707 23.4889 127.884 23.5ZM150.628 32.4814V32.2822C150.628 31.0316 150.296 29.9635 149.632 29.0781C148.957 28.2038 148.143 27.7666 147.191 27.7666C146.627 27.6781 146.062 27.7279 145.498 27.916C144.369 28.2923 143.788 29.1722 143.755 30.5557V34.7061C144.009 35.3923 144.618 35.9235 145.581 36.2998C146.688 36.7314 147.795 36.6761 148.901 36.1338C149.433 35.8792 149.859 35.4033 150.18 34.7061C150.479 34.042 150.628 33.3005 150.628 32.4814ZM147.623 40.5498C146.251 40.5498 144.961 40.1956 143.755 39.4873V44.9658C143.755 45.6742 143.5 46.2829 142.991 46.792C142.482 47.3011 141.873 47.5557 141.165 47.5557H141.099C140.39 47.5557 139.782 47.3011 139.272 46.792C138.763 46.2829 138.509 45.6742 138.509 44.9658V24.8281C138.509 24.5293 138.614 24.2747 138.824 24.0645C139.035 23.8652 139.284 23.7656 139.571 23.7656H142.692C142.991 23.7656 143.24 23.8652 143.439 24.0645C143.65 24.2747 143.755 24.5238 143.755 24.8115V24.8281C144.961 24.1198 146.251 23.7656 147.623 23.7656C149.826 23.7656 151.707 24.5846 153.268 26.2227C154.828 27.8607 155.608 29.8363 155.608 32.1494C155.608 34.4736 154.828 36.4548 153.268 38.0928C151.707 39.7308 149.826 40.5498 147.623 40.5498ZM164.64 32.7471C164.64 34.6064 165.16 35.8018 166.2 36.333C166.599 36.5322 166.837 36.8753 166.914 37.3623C166.992 37.7939 166.936 38.2699 166.748 38.79C166.294 40.0075 165.647 40.6162 164.806 40.6162C162.891 40.6162 161.485 39.7529 160.589 38.0264C159.869 36.6429 159.504 34.7725 159.493 32.415V27.501H158.796C158.32 27.501 157.916 27.335 157.584 27.0029C157.252 26.6709 157.086 26.2669 157.086 25.791V25.7578C157.086 25.293 157.252 24.8945 157.584 24.5625C157.916 24.2194 158.32 24.0479 158.796 24.0479H159.493V22.6367C159.493 21.7956 159.825 21.1204 160.489 20.6113C161.153 20.1022 161.889 19.9583 162.697 20.1797L162.764 20.1963C163.317 20.3402 163.765 20.639 164.108 21.0928C164.463 21.5576 164.64 22.0723 164.64 22.6367V24.0479H166.167C166.632 24.0479 167.03 24.2194 167.362 24.5625C167.705 24.8945 167.877 25.293 167.877 25.7578V25.791C167.877 26.2669 167.705 26.6709 167.362 27.0029C167.03 27.335 166.632 27.501 166.167 27.501H164.64V32.7471ZM175.281 35.4199C176.089 36.3275 177.058 36.7812 178.187 36.7812C179.315 36.7812 180.284 36.3275 181.092 35.4199C181.889 34.5234 182.287 33.4443 182.287 32.1826C182.287 30.9209 181.889 29.8418 181.092 28.9453C180.284 28.0488 179.315 27.6006 178.187 27.6006C177.058 27.6006 176.089 28.0488 175.281 28.9453C174.473 29.8418 174.069 30.9209 174.069 32.1826C174.069 33.4443 174.473 34.5234 175.281 35.4199ZM178.187 23.5C178.341 23.4889 178.502 23.4834 178.668 23.4834C181.081 23.4834 183.134 24.3356 184.827 26.04C186.532 27.7445 187.384 29.792 187.384 32.1826C187.384 34.5954 186.532 36.6484 184.827 38.3418C183.134 40.0462 181.081 40.8984 178.668 40.8984C178.502 40.8984 178.341 40.8929 178.187 40.8818C178.009 40.8929 177.838 40.8984 177.672 40.8984C175.27 40.8984 173.217 40.0462 171.513 38.3418C169.819 36.6484 168.973 34.5954 168.973 32.1826C168.973 29.792 169.819 27.7445 171.513 26.04C173.217 24.3356 175.27 23.4834 177.672 23.4834C177.838 23.4834 178.009 23.4889 178.187 23.5ZM200.931 32.4814V32.2822C200.931 31.0316 200.599 29.9635 199.935 29.0781C199.259 28.2038 198.446 27.7666 197.494 27.7666C196.93 27.6781 196.365 27.7279 195.801 27.916C194.672 28.2923 194.091 29.1722 194.058 30.5557V34.7061C194.312 35.3923 194.921 35.9235 195.884 36.2998C196.991 36.7314 198.097 36.6761 199.204 36.1338C199.735 35.8792 200.161 35.4033 200.482 34.7061C200.781 34.042 200.931 33.3005 200.931 32.4814ZM197.926 40.5498C196.553 40.5498 195.264 40.1956 194.058 39.4873V44.9658C194.058 45.6742 193.803 46.2829 193.294 46.792C192.785 47.3011 192.176 47.5557 191.468 47.5557H191.401C190.693 47.5557 190.084 47.3011 189.575 46.792C189.066 46.2829 188.812 45.6742 188.812 44.9658V24.8281C188.812 24.5293 188.917 24.2747 189.127 24.0645C189.337 23.8652 189.586 23.7656 189.874 23.7656H192.995C193.294 23.7656 193.543 23.8652 193.742 24.0645C193.952 24.2747 194.058 24.5238 194.058 24.8115V24.8281C195.264 24.1198 196.553 23.7656 197.926 23.7656C200.128 23.7656 202.01 24.5846 203.57 26.2227C205.131 27.8607 205.911 29.8363 205.911 32.1494C205.911 34.4736 205.131 36.4548 203.57 38.0928C202.01 39.7308 200.128 40.5498 197.926 40.5498ZM210.493 40.6162C209.741 40.6162 209.099 40.3506 208.567 39.8193C208.047 39.2992 207.787 38.6628 207.787 37.9102V26.9365C207.787 26.195 208.047 25.5586 208.567 25.0273C209.099 24.4961 209.741 24.2305 210.493 24.2305H210.543C211.285 24.2305 211.921 24.4961 212.452 25.0273C212.983 25.5586 213.249 26.195 213.249 26.9365V37.9102C213.249 38.6628 212.983 39.2992 212.452 39.8193C211.921 40.3506 211.285 40.6162 210.543 40.6162H210.493ZM213.249 19.9307C213.249 20.7054 212.972 21.3695 212.419 21.9229C211.877 22.4652 211.218 22.7363 210.443 22.7363C209.669 22.7363 209.005 22.4652 208.451 21.9229C207.909 21.3695 207.638 20.7054 207.638 19.9307C207.638 19.1559 207.909 18.4974 208.451 17.9551C209.005 17.4128 209.669 17.1416 210.443 17.1416C211.218 17.1416 211.877 17.4128 212.419 17.9551C212.972 18.4974 213.249 19.1559 213.249 19.9307ZM219.89 31.9004V32.0996C219.89 33.3503 220.222 34.4183 220.886 35.3037C221.561 36.1781 222.374 36.6152 223.326 36.6152C223.891 36.7038 224.455 36.654 225.02 36.4658C226.148 36.0785 226.729 35.1986 226.763 33.8262V29.6758C226.508 28.9896 225.899 28.4583 224.937 28.082C223.83 27.6504 222.723 27.7057 221.616 28.248C221.085 28.5026 220.659 28.9785 220.338 29.6758C220.039 30.3398 219.89 31.0814 219.89 31.9004ZM217.25 38.1592C215.689 36.5212 214.909 34.5456 214.909 32.2324C214.909 29.9082 215.689 27.9271 217.25 26.2891C218.811 24.651 220.692 23.832 222.895 23.832C224.754 23.832 226.043 24.651 226.763 26.2891V26.2725C226.763 25.7412 226.951 25.2874 227.327 24.9111C227.703 24.5348 228.157 24.3467 228.688 24.3467H230.05C230.592 24.3467 231.051 24.5348 231.428 24.9111C231.815 25.2985 232.009 25.7578 232.009 26.2891V39.5537C232.009 39.8525 231.904 40.1016 231.693 40.3008C231.483 40.5111 231.234 40.6162 230.946 40.6162H228.755C228.423 40.6162 227.975 40.3118 227.41 39.7031C227.167 39.4486 226.879 39.2992 226.547 39.2549C226.204 39.2106 225.888 39.2826 225.601 39.4707C224.427 40.2344 223.525 40.6162 222.895 40.6162C220.692 40.6162 218.811 39.7972 217.25 38.1592Z" fill="#123BEB"/>
</svg>
