<svg width="1066" height="754" viewBox="0 0 1066 754" fill="none" xmlns="http://www.w3.org/2000/svg">
<path d="M710.189 451.204C710.189 534.322 617.528 443.704 517.189 443.704C416.851 443.704 323.189 533.704 323.189 451.204C323.189 362.204 416.689 213.704 517.189 213.704C635.689 213.704 710.189 368.085 710.189 451.204Z" fill="white"/>
<ellipse cx="345.249" cy="215.643" rx="55.6349" ry="66.4993" transform="rotate(-38.9097 345.249 215.643)" fill="white"/>
<ellipse cx="469.636" cy="108.397" rx="82.1848" ry="98.5411" transform="rotate(-6.89428 469.636 108.397)" fill="white"/>
<ellipse cx="639.494" cy="139.615" rx="72.2228" ry="90.8832" transform="rotate(21.3015 639.494 139.615)" fill="white"/>
<ellipse cx="725.5" cy="257.22" rx="52.879" ry="63.5159" transform="rotate(36.5668 725.5 257.22)" fill="white"/>
<path d="M573.189 373.649V380.649H573.538L573.886 380.614L573.189 373.649ZM607.188 323.553L613.425 320.374L611.477 316.553H607.188V323.553ZM516.188 280.053L519.813 274.064L519.516 273.885L519.204 273.736L516.188 280.053ZM440.189 354.203L436.56 360.189H436.56L440.189 354.203ZM521.797 320.891C524.11 317.793 523.473 313.407 520.375 311.094C517.277 308.782 512.891 309.418 510.578 312.516L521.797 320.891ZM458.189 465.203C458.189 437.843 461.558 417.71 476.133 403.879C490.935 389.832 519.018 380.649 573.189 380.649V366.649C518.361 366.649 485.443 375.743 466.496 393.723C447.321 411.92 444.189 437.564 444.189 465.203H458.189ZM573.886 380.614C585.004 379.502 593.705 375.995 600.296 370.845C606.875 365.704 610.983 359.216 613.382 352.71C615.764 346.249 616.488 339.713 616.326 334.198C616.169 328.873 615.16 323.778 613.425 320.374L600.952 326.732C601.383 327.579 602.207 330.371 602.332 334.61C602.451 338.66 601.905 343.367 600.246 347.867C598.603 352.322 595.899 356.514 591.676 359.813C587.465 363.103 581.374 365.795 572.493 366.683L573.886 380.614ZM607.188 316.553C581.266 316.553 565.788 309.7 553.972 301.407C547.884 297.135 542.703 292.44 537.258 287.613C531.93 282.888 526.298 277.99 519.813 274.064L512.563 286.041C517.828 289.228 522.596 293.323 527.971 298.088C533.229 302.75 539.054 308.042 545.929 312.867C560.038 322.768 578.311 330.553 607.188 330.553V316.553ZM436.56 360.189C448.408 367.373 459.59 369.477 469.885 367.787C480.03 366.122 488.543 360.901 495.448 354.8C502.349 348.703 507.96 341.448 512.315 335.168C514.502 332.015 516.416 329.041 518.014 326.56C519.672 323.986 520.872 322.13 521.797 320.891L510.578 312.516C509.295 314.235 507.792 316.576 506.244 318.979C504.636 321.475 502.843 324.26 500.811 327.19C496.729 333.076 491.861 339.288 486.179 344.308C480.501 349.325 474.327 352.87 467.618 353.972C461.059 355.048 453.221 353.918 443.819 348.218L436.56 360.189ZM519.204 273.736C504.379 266.658 489.922 267.726 477.307 273.389C464.914 278.952 454.387 288.872 446.443 299.583C438.492 310.303 432.732 322.345 430.214 332.776C428.961 337.963 428.411 343.157 429.076 347.768C429.74 352.378 431.794 357.299 436.56 360.189L443.819 348.218C443.811 348.213 443.703 348.16 443.534 347.853C443.342 347.505 443.089 346.854 442.933 345.771C442.612 343.543 442.809 340.259 443.823 336.061C445.836 327.723 450.68 317.37 457.687 307.923C464.7 298.468 473.485 290.45 483.04 286.161C492.372 281.972 502.497 281.273 513.172 286.37L519.204 273.736Z" fill="#123BEB"/>
<path d="M59.0195 627.933H89.3789L89.2656 627.707C83.224 608.751 78.2396 590.626 74.3125 573.332H73.6328C70.763 587.076 65.8919 605.277 59.0195 627.933ZM101.727 559.625L141.262 669.167C143.452 675.058 142.734 680.609 139.109 685.82C135.409 691.031 130.424 693.636 124.156 693.636H123.703C119.776 693.636 116.189 692.466 112.941 690.125C109.77 687.783 107.579 684.725 106.371 680.949L99.0078 658.292H49.6172L42.707 680.722C41.5742 684.574 39.3841 687.67 36.1367 690.011C32.8893 692.428 29.2643 693.636 25.2617 693.636H23.3359C17.0677 693.636 12.1211 691.069 8.49609 685.933C4.87109 680.873 4.07812 675.36 6.11719 669.394L43.7266 560.078C45.8411 553.96 49.5417 549.014 54.8281 545.238C60.1146 541.386 66.043 539.46 72.6133 539.46H72.9531C79.4479 539.46 85.3008 541.311 90.5117 545.011C95.7982 548.712 99.5365 553.583 101.727 559.625ZM189.633 634.617V635.976C189.633 644.51 191.898 651.798 196.43 657.839C201.036 663.806 206.587 666.789 213.082 666.789C216.934 667.393 220.785 667.053 224.637 665.769C232.34 663.201 236.305 657.197 236.531 647.757V619.437C234.794 614.755 230.641 611.13 224.07 608.562C216.518 605.617 208.966 605.994 201.414 609.695C197.789 611.432 194.882 614.679 192.691 619.437C190.652 623.968 189.633 629.028 189.633 634.617ZM210.137 579.562C219.501 579.562 228.299 581.979 236.531 586.812V549.429C236.531 544.596 238.268 540.442 241.742 536.968C245.216 533.494 249.37 531.757 254.203 531.757H254.656C259.49 531.757 263.643 533.494 267.117 536.968C270.591 540.442 272.328 544.596 272.328 549.429V686.839C272.328 688.878 271.611 690.615 270.176 692.05C268.741 693.41 267.042 694.089 265.078 694.089H243.781C241.742 694.089 240.043 693.41 238.684 692.05C237.249 690.615 236.531 688.916 236.531 686.953V686.839C228.299 691.673 219.501 694.089 210.137 694.089C195.108 694.089 182.27 688.501 171.621 677.324C160.973 666.147 155.648 652.666 155.648 636.882C155.648 621.023 160.973 607.505 171.621 596.328C182.27 585.151 195.108 579.562 210.137 579.562ZM327.383 658.632C332.896 664.825 339.504 667.921 347.207 667.921C354.91 667.921 361.518 664.825 367.031 658.632C372.469 652.515 375.188 645.152 375.188 636.542C375.188 627.933 372.469 620.57 367.031 614.453C361.518 608.335 354.91 605.277 347.207 605.277C339.504 605.277 332.896 608.335 327.383 614.453C321.87 620.57 319.113 627.933 319.113 636.542C319.113 645.152 321.87 652.515 327.383 658.632ZM347.207 577.296C348.264 577.221 349.359 577.183 350.492 577.183C366.956 577.183 380.965 582.998 392.52 594.628C404.15 606.259 409.965 620.23 409.965 636.542C409.965 653.006 404.15 667.015 392.52 678.57C380.965 690.2 366.956 696.015 350.492 696.015C349.359 696.015 348.264 695.977 347.207 695.902C345.999 695.977 344.828 696.015 343.695 696.015C327.307 696.015 313.298 690.2 301.668 678.57C290.113 667.015 284.336 653.006 284.336 636.542C284.336 620.23 290.113 606.259 301.668 594.628C313.298 582.998 327.307 577.183 343.695 577.183C344.828 577.183 345.999 577.221 347.207 577.296ZM502.402 638.582V637.222C502.402 628.688 500.137 621.401 495.605 615.359C490.999 609.393 485.448 606.41 478.953 606.41C475.102 605.806 471.25 606.145 467.398 607.429C459.695 609.997 455.73 616.001 455.504 625.441V653.761C457.241 658.444 461.395 662.069 467.965 664.636C475.517 667.582 483.069 667.204 490.621 663.503C494.246 661.766 497.154 658.519 499.344 653.761C501.383 649.23 502.402 644.17 502.402 638.582ZM481.898 693.636C472.534 693.636 463.736 691.22 455.504 686.386V723.769C455.504 728.602 453.767 732.756 450.293 736.23C446.819 739.704 442.665 741.441 437.832 741.441H437.379C432.546 741.441 428.392 739.704 424.918 736.23C421.444 732.756 419.707 728.602 419.707 723.769V586.359C419.707 584.32 420.424 582.583 421.859 581.148C423.294 579.789 424.993 579.109 426.957 579.109H448.254C450.293 579.109 451.992 579.789 453.352 581.148C454.786 582.583 455.504 584.282 455.504 586.246V586.359C463.736 581.526 472.534 579.109 481.898 579.109C496.927 579.109 509.766 584.697 520.414 595.875C531.062 607.052 536.387 620.532 536.387 636.316C536.387 652.175 531.062 665.694 520.414 676.871C509.766 688.048 496.927 693.636 481.898 693.636ZM598.012 640.394C598.012 653.082 601.561 661.238 608.66 664.863C611.379 666.222 613.003 668.563 613.531 671.886C614.06 674.832 613.682 678.079 612.398 681.628C609.302 689.936 604.884 694.089 599.145 694.089C586.079 694.089 576.488 688.199 570.371 676.417C565.462 666.977 562.97 654.214 562.895 638.128V604.597H558.137C554.889 604.597 552.133 603.464 549.867 601.199C547.602 598.933 546.469 596.177 546.469 592.929V592.703C546.469 589.531 547.602 586.812 549.867 584.546C552.133 582.205 554.889 581.035 558.137 581.035H562.895V571.406C562.895 565.666 565.16 561.059 569.691 557.585C574.223 554.111 579.245 553.13 584.758 554.64L585.211 554.753C588.987 555.735 592.046 557.774 594.387 560.871C596.803 564.042 598.012 567.554 598.012 571.406V581.035H608.434C611.605 581.035 614.324 582.205 616.59 584.546C618.931 586.812 620.102 589.531 620.102 592.703V592.929C620.102 596.177 618.931 598.933 616.59 601.199C614.324 603.464 611.605 604.597 608.434 604.597H598.012V640.394ZM670.625 658.632C676.138 664.825 682.746 667.921 690.449 667.921C698.152 667.921 704.76 664.825 710.273 658.632C715.711 652.515 718.43 645.152 718.43 636.542C718.43 627.933 715.711 620.57 710.273 614.453C704.76 608.335 698.152 605.277 690.449 605.277C682.746 605.277 676.138 608.335 670.625 614.453C665.112 620.57 662.355 627.933 662.355 636.542C662.355 645.152 665.112 652.515 670.625 658.632ZM690.449 577.296C691.507 577.221 692.602 577.183 693.734 577.183C710.198 577.183 724.207 582.998 735.762 594.628C747.392 606.259 753.207 620.23 753.207 636.542C753.207 653.006 747.392 667.015 735.762 678.57C724.207 690.2 710.198 696.015 693.734 696.015C692.602 696.015 691.507 695.977 690.449 695.902C689.241 695.977 688.07 696.015 686.938 696.015C670.549 696.015 656.54 690.2 644.91 678.57C633.355 667.015 627.578 653.006 627.578 636.542C627.578 620.23 633.355 606.259 644.91 594.628C656.54 582.998 670.549 577.183 686.938 577.183C688.07 577.183 689.241 577.221 690.449 577.296ZM845.645 638.582V637.222C845.645 628.688 843.379 621.401 838.848 615.359C834.241 609.393 828.69 606.41 822.195 606.41C818.344 605.806 814.492 606.145 810.641 607.429C802.938 609.997 798.973 616.001 798.746 625.441V653.761C800.483 658.444 804.637 662.069 811.207 664.636C818.759 667.582 826.311 667.204 833.863 663.503C837.488 661.766 840.396 658.519 842.586 653.761C844.625 649.23 845.645 644.17 845.645 638.582ZM825.141 693.636C815.776 693.636 806.978 691.22 798.746 686.386V723.769C798.746 728.602 797.009 732.756 793.535 736.23C790.061 739.704 785.908 741.441 781.074 741.441H780.621C775.788 741.441 771.634 739.704 768.16 736.23C764.686 732.756 762.949 728.602 762.949 723.769V586.359C762.949 584.32 763.667 582.583 765.102 581.148C766.536 579.789 768.236 579.109 770.199 579.109H791.496C793.535 579.109 795.234 579.789 796.594 581.148C798.029 582.583 798.746 584.282 798.746 586.246V586.359C806.978 581.526 815.776 579.109 825.141 579.109C840.169 579.109 853.008 584.697 863.656 595.875C874.305 607.052 879.629 620.532 879.629 636.316C879.629 652.175 874.305 665.694 863.656 676.871C853.008 688.048 840.169 693.636 825.141 693.636ZM910.895 694.089C905.759 694.089 901.379 692.277 897.754 688.652C894.204 685.102 892.43 680.76 892.43 675.625V600.746C892.43 595.686 894.204 591.343 897.754 587.718C901.379 584.093 905.759 582.281 910.895 582.281H911.234C916.294 582.281 920.637 584.093 924.262 587.718C927.887 591.343 929.699 595.686 929.699 600.746V675.625C929.699 680.76 927.887 685.102 924.262 688.652C920.637 692.277 916.294 694.089 911.234 694.089H910.895ZM929.699 552.941C929.699 558.227 927.811 562.759 924.035 566.535C920.335 570.235 915.841 572.085 910.555 572.085C905.268 572.085 900.737 570.235 896.961 566.535C893.26 562.759 891.41 558.227 891.41 552.941C891.41 547.654 893.26 543.161 896.961 539.46C900.737 535.76 905.268 533.91 910.555 533.91C915.841 533.91 920.335 535.76 924.035 539.46C927.811 543.161 929.699 547.654 929.699 552.941ZM975.012 634.617V635.976C975.012 644.51 977.277 651.798 981.809 657.839C986.415 663.806 991.966 666.789 998.461 666.789C1002.31 667.393 1006.16 667.053 1010.02 665.769C1017.72 663.126 1021.68 657.122 1021.91 647.757V619.437C1020.17 614.755 1016.02 611.13 1009.45 608.562C1001.9 605.617 994.345 605.994 986.793 609.695C983.168 611.432 980.26 614.679 978.07 619.437C976.031 623.968 975.012 629.028 975.012 634.617ZM957 677.324C946.352 666.147 941.027 652.666 941.027 636.882C941.027 621.023 946.352 607.505 957 596.328C967.648 585.151 980.487 579.562 995.516 579.562C1008.2 579.562 1017 585.151 1021.91 596.328V596.214C1021.91 592.589 1023.19 589.493 1025.76 586.925C1028.33 584.358 1031.43 583.074 1035.05 583.074H1044.34C1048.04 583.074 1051.17 584.358 1053.74 586.925C1056.39 589.569 1057.71 592.703 1057.71 596.328V686.839C1057.71 688.878 1056.99 690.578 1055.55 691.937C1054.12 693.372 1052.42 694.089 1050.46 694.089H1035.5C1033.24 694.089 1030.18 692.013 1026.33 687.859C1024.67 686.122 1022.7 685.102 1020.44 684.8C1018.1 684.498 1015.94 684.989 1013.98 686.273C1005.98 691.484 999.82 694.089 995.516 694.089C980.487 694.089 967.648 688.501 957 677.324Z" fill="white"/>
</svg>
